# xmcd
#
# Track frame offsets:
#	150
#	39392
#	47864
#	73179
#	89312
#	110679
#	134783
#	143947
#	178627
#	227606
#	242851
#	256453
#	292533
#	305217
#
# Disc length: 4366 seconds
#
# Revision: 0
# Processed by: cddbd v1.4PL0 Copyright (c) Steve Scherf et al.
# Submitted via: EasyCDDAExtractor 4.6.0.1
#
DISCID=d4110c0e
DTITLE=Dr. Tangalanga - Coleccion Privada 4
DYEAR=2001
DGENRE=
TTITLE0=Almacen en venta
TTITLE1=Fabricante de ataud
TTITLE2=Buda
TTITLE3=Cambio de Apellido
TTITLE4=Caso Somiso
TTITLE5=Contribuyente equivocado
TTITLE6=Imitador
TTITLE7=Parapsicologo de lujo
TTITLE8=Productor avicola
TTITLE9=Religion Africana
TTITLE10=Voz de celebre 2 (Rie Payaso)
TTITLE11=Tenor profesional
TTITLE12=Tour Gay
TTITLE13=Volantes del cosmos
EXTD=
EXTT0=
EXTT1=
EXTT2=
EXTT3=
EXTT4=
EXTT5=
EXTT6=
EXTT7=
EXTT8=
EXTT9=
EXTT10=
EXTT11=
EXTT12=
EXTT13=
PLAYORDER=
